M48
;Layer_Color=9474304
;FILE_FORMAT=4:3
METRIC,LZ
;TYPE=PLATED
T1F00S00C0.762
T2F00S00C0.800
T3F00S00C0.850
T4F00S00C0.900
T5F00S00C1.000
T6F00S00C1.016
T7F00S00C1.200
T9F00S00C2.600
%
T01
X0058344Y0042926
X0060884
T02
X0067818Y0016256
X0069088
X0070358
X0041053Y0006293
Y0002293
Y004699
X0045053
T03
X0061316Y0033146
X0064668Y0033146
Y0039244
X0061316Y0039244
X0051511Y0036755
X004826Y0039244
Y0033146
X0045975Y0033147
X0045975Y0030353
X0051511Y0030657
X0039877Y0030353
X0039877Y0033147
T04
X0030302Y001209
X0032842
T05
X0089774Y0007533
Y0010033
Y0012533
Y0022773
Y0025273
Y0027773
Y0038013
Y0040513
Y0043013
T06
X005428Y000635
X0062509Y0016307
X0079223Y003302
X0093218Y0032918
Y0012776
X0053442Y0023495
X0025806Y0039599
X0034366Y0046914
X0040183Y0041783
T07
X0018678Y0020473
Y0025273
Y0030073
X0023978
Y0025273
Y0020473
X0029278
Y0025273
Y0030073
T09
X0010924Y0024843
X0013874Y0029743
X0007874
M30
