M48
;Layer_Color=9474304
;FILE_FORMAT=4:3
METRIC,LZ
;TYPE=PLATED
T1F00S00C0.762
T2F00S00C0.800
T3F00S00C0.850
T4F00S00C1.000
T5F00S00C1.016
T6F00S00C1.200
T8F00S00C2.600
%
T01
X0058344Y0042926
X0060884
T02
X0060509Y0002794
X0064509
X0067818Y0016256
X0069088
X0070358
X0064509Y004826
X0060509
T03
X0061316Y0033146
X0064668Y0033146
Y0039244
X0061316Y0039244
X0051511Y0036755
X004826Y0039244
Y0033146
X0045975Y0033147
X0045975Y0030353
X0051511Y0030657
X0039877Y0030353
X0039877Y0033147
T04
X0089774Y0007533
Y0010033
Y0012533
Y0022773
Y0025273
Y0027773
Y0038013
Y0040513
Y0043013
T05
X0062509Y0016307
X0083896Y0008585
Y0027051
Y0033172
Y0040513
X0040488Y0039268
X0043155Y0023114
X0018694Y0039268
T06
X001905Y0020473
Y0025273
Y0030073
X002435
Y0025273
Y0020473
X001375
Y0025273
Y0030073
T08
X0010772Y0039067
X0013722Y0043967
X0007722
M30
